<svg width="175" height="22" viewBox="0 0 175 22" fill="none" xmlns="http://www.w3.org/2000/svg">
<path fill-rule="evenodd" clip-rule="evenodd" d="M23.1068 11H18.2213V12.6318V18.7371C18.2213 19.7576 19.0485 20.5848 20.069 20.5848H25.9844C27.0048 20.5848 27.832 19.7576 27.832 18.7371V12.8477C27.832 11.8273 27.0048 11 25.9844 11H23.1068Z" fill="url(#paint0_linear_130_481)"/>
<path d="M1.38292 13.8415C1.11501 14.1709 0.96875 14.5826 0.96875 15.0072V18.7371C0.96875 19.7576 1.79598 20.5848 2.81641 20.5848H7.02718C7.56661 20.5848 8.0791 20.349 8.43012 19.9394L15.5382 11.6454C15.8892 11.2358 16.4017 11 16.9411 11H18.2213V7.76518V3.26295C18.2213 2.24251 17.3941 1.41528 16.3736 1.41528H12.3672C11.8111 1.41528 11.2845 1.66575 10.9337 2.0972L1.38292 13.8415Z" fill="url(#paint1_linear_130_481)"/>
<path d="M40.7164 21.0482C39.6639 21.0482 38.7734 20.8504 38.0448 20.4546C37.3162 20.0498 36.763 19.5146 36.3852 18.8489C36.0164 18.1833 35.832 17.4502 35.832 16.6496C35.832 15.948 35.949 15.3184 36.1828 14.7607C36.4167 14.194 36.7765 13.7082 37.2623 13.3035C37.748 12.8897 38.3776 12.5524 39.1512 12.2915C39.7359 12.1026 40.4195 11.9317 41.2021 11.7788C41.9937 11.6259 42.8482 11.4864 43.7657 11.3605C44.6922 11.2256 45.6592 11.0817 46.6666 10.9287L45.5063 11.5899C45.5153 10.5824 45.2904 9.84034 44.8316 9.3636C44.3729 8.88686 43.5993 8.64849 42.5109 8.64849C41.8543 8.64849 41.2201 8.8014 40.6084 9.10724C39.9968 9.41307 39.5695 9.93928 39.3266 10.6859L36.3582 9.75488C36.718 8.52255 37.4017 7.53309 38.4091 6.7865C39.4256 6.0399 40.7928 5.66661 42.5109 5.66661C43.8062 5.66661 44.9441 5.87799 45.9245 6.30076C46.914 6.72353 47.6471 7.41616 48.1239 8.37863C48.3847 8.89135 48.5421 9.41757 48.5961 9.95727C48.6501 10.488 48.6771 11.0682 48.6771 11.6978V21.0482H45.8301V17.4862L46.3023 17.9989C45.6457 19.0513 44.8766 19.8249 43.9951 20.3196C43.1226 20.8054 42.0297 21.0482 40.7164 21.0482ZM41.364 18.4577C42.1016 18.4577 42.7313 18.3272 43.253 18.0664C43.7747 17.8055 44.1885 17.4862 44.4943 17.1084C44.8092 16.7306 45.0205 16.3753 45.1285 16.0425C45.2994 15.6287 45.3938 15.1565 45.4118 14.6257C45.4388 14.086 45.4523 13.6498 45.4523 13.3169L46.4508 13.6138C45.4703 13.7667 44.6293 13.9016 43.9276 14.0186C43.226 14.1355 42.6233 14.2479 42.1196 14.3559C41.6159 14.4548 41.1706 14.5673 40.7838 14.6932C40.406 14.8281 40.0867 14.9855 39.8259 15.1654C39.565 15.3453 39.3626 15.5522 39.2187 15.7861C39.0838 16.02 39.0163 16.2943 39.0163 16.6092C39.0163 16.969 39.1063 17.2883 39.2862 17.5671C39.4661 17.837 39.7269 18.0529 40.0687 18.2148C40.4195 18.3767 40.8513 18.4577 41.364 18.4577Z" fill="#6D758F"/>
<path d="M54.4248 21.0482L49.234 6.07139H52.4858L56.1558 16.6361L59.8123 6.07139H63.0775L57.6901 21.0482H54.4248Z" fill="#6D758F"/>
<path d="M70.5175 21.0482C69.0423 21.0482 67.747 20.7289 66.6316 20.0903C65.5162 19.4516 64.6437 18.5656 64.014 17.4322C63.3933 16.2988 63.083 14.9945 63.083 13.5193C63.083 11.9272 63.3888 10.5465 64.0005 9.37709C64.6122 8.19873 65.4622 7.28573 66.5506 6.63808C67.639 5.99043 68.8983 5.66661 70.3286 5.66661C71.8397 5.66661 73.1216 6.02191 74.174 6.73253C75.2354 7.43415 76.0225 8.4281 76.5352 9.71441C77.0479 11.0007 77.2413 12.5164 77.1154 14.2614H73.8906V13.0741C73.8816 11.4909 73.6028 10.3351 73.0541 9.60647C72.5054 8.87786 71.6419 8.51356 70.4635 8.51356C69.1322 8.51356 68.1428 8.92733 67.4951 9.75488C66.8475 10.5734 66.5236 11.7743 66.5236 13.3574C66.5236 14.8326 66.8475 15.975 67.4951 16.7846C68.1428 17.5941 69.0872 17.9989 70.3286 17.9989C71.1291 17.9989 71.8173 17.8235 72.3929 17.4727C72.9776 17.1129 73.4274 16.5957 73.7422 15.921L76.9535 16.8925C76.3958 18.2058 75.5322 19.2267 74.3629 19.9553C73.2025 20.6839 71.9207 21.0482 70.5175 21.0482ZM65.4982 14.2614V11.8058H75.5232V14.2614H65.4982Z" fill="#6D758F"/>
<path d="M88.7302 21.0111V13.6273C88.7302 13.1685 88.6988 12.6603 88.6358 12.1026C88.5728 11.5449 88.4244 11.0097 88.1905 10.497C87.9657 9.97526 87.6239 9.548 87.1651 9.21518C86.7153 8.88236 86.1037 8.71595 85.3301 8.71595C84.9163 8.71595 84.507 8.78341 84.1023 8.91834C83.6975 9.05327 83.3287 9.28714 82.9959 9.61996C82.672 9.94378 82.4112 10.3935 82.2133 10.9692C82.0154 11.5359 81.9165 12.2645 81.9165 13.155L79.987 12.332C79.987 11.0907 80.2254 9.96627 80.7021 8.95882C81.1878 7.95136 81.8985 7.1508 82.834 6.55712C83.7694 5.95445 84.9208 5.65311 86.2881 5.65311C87.3675 5.65311 88.258 5.83302 88.9596 6.19282C89.6612 6.55262 90.2189 7.01138 90.6327 7.56907C91.0465 8.12677 91.3523 8.72045 91.5502 9.35011C91.7481 9.97976 91.874 10.5779 91.928 11.1446C91.991 11.7023 92.0225 12.1566 92.0225 12.5074V21.0111H88.7302ZM78.6242 21.0111V6.07139H81.5252V10.5914H81.9165V21.0111H78.6242Z" fill="#6D758F"/>
<path d="M94.7339 3.85859V0.876709H97.9856V3.85859H94.7339ZM94.7339 21.0111V6.07139H97.9856V21.0111H94.7339Z" fill="#6D758F"/>
<path d="M100.948 21.0111V6.07139H103.822V9.61996L103.471 9.16121C103.651 8.67547 103.889 8.23471 104.186 7.83893C104.492 7.43415 104.856 7.10133 105.279 6.84047C105.639 6.5976 106.035 6.4087 106.466 6.27378C106.907 6.12985 107.357 6.0444 107.816 6.01741C108.274 5.98143 108.72 5.99942 109.151 6.07139V9.10724C108.72 8.98131 108.22 8.94083 107.654 8.9858C107.096 9.03078 106.592 9.18819 106.143 9.45805C105.693 9.70091 105.324 10.0112 105.036 10.389C104.757 10.7668 104.55 11.1986 104.415 11.6843C104.281 12.1611 104.213 12.6783 104.213 13.236V21.0111H100.948Z" fill="#6D758F"/>
<path d="M123.511 20.8888C122.548 21.0687 121.604 21.1452 120.677 21.1182C119.76 21.1002 118.937 20.9338 118.208 20.6189C117.479 20.2951 116.926 19.7869 116.548 19.0943C116.216 18.4646 116.04 17.8215 116.022 17.1648C116.004 16.5082 115.995 15.7661 115.995 14.9385V0.876902H119.233V14.7496C119.233 15.3343 119.238 15.847 119.247 16.2878C119.265 16.7285 119.359 17.0884 119.53 17.3672C119.854 17.9069 120.371 18.2082 121.082 18.2712C121.792 18.3342 122.602 18.2982 123.511 18.1633V20.8888ZM113.351 8.86682V6.31671H123.511V8.86682H113.351Z" fill="#6D758F"/>
<path d="M131.452 21.0482C129.976 21.0482 128.681 20.7289 127.566 20.0903C126.45 19.4516 125.578 18.5656 124.948 17.4322C124.327 16.2988 124.017 14.9945 124.017 13.5193C124.017 11.9272 124.323 10.5465 124.935 9.37709C125.546 8.19873 126.396 7.28573 127.485 6.63808C128.573 5.99043 129.832 5.66661 131.263 5.66661C132.774 5.66661 134.056 6.02191 135.108 6.73253C136.17 7.43415 136.957 8.4281 137.469 9.71441C137.982 11.0007 138.175 12.5164 138.05 14.2614H134.825V13.0741C134.816 11.4909 134.537 10.3351 133.988 9.60647C133.44 8.87786 132.576 8.51356 131.398 8.51356C130.066 8.51356 129.077 8.92733 128.429 9.75488C127.782 10.5734 127.458 11.7743 127.458 13.3574C127.458 14.8326 127.782 15.975 128.429 16.7846C129.077 17.5941 130.021 17.9989 131.263 17.9989C132.063 17.9989 132.751 17.8235 133.327 17.4727C133.912 17.1129 134.362 16.5957 134.676 15.921L137.888 16.8925C137.33 18.2058 136.466 19.2267 135.297 19.9553C134.137 20.6839 132.855 21.0482 131.452 21.0482ZM126.432 14.2614V11.8058H136.457V14.2614H126.432Z" fill="#6D758F"/>
<path d="M143.792 21.0482C142.74 21.0482 141.849 20.8504 141.12 20.4546C140.392 20.0498 139.839 19.5146 139.461 18.8489C139.092 18.1833 138.908 17.4502 138.908 16.6496C138.908 15.948 139.025 15.3184 139.258 14.7607C139.492 14.194 139.852 13.7082 140.338 13.3035C140.824 12.8897 141.453 12.5524 142.227 12.2915C142.811 12.1026 143.495 11.9317 144.278 11.7788C145.069 11.6259 145.924 11.4864 146.841 11.3605C147.768 11.2256 148.735 11.0817 149.742 10.9287L148.582 11.5899C148.591 10.5824 148.366 9.84034 147.907 9.3636C147.448 8.88686 146.675 8.64849 145.586 8.64849C144.93 8.64849 144.296 8.8014 143.684 9.10724C143.072 9.41307 142.645 9.93928 142.402 10.6859L139.434 9.75488C139.794 8.52255 140.477 7.53309 141.485 6.7865C142.501 6.0399 143.868 5.66661 145.586 5.66661C146.882 5.66661 148.02 5.87799 149 6.30076C149.99 6.72353 150.723 7.41616 151.199 8.37863C151.46 8.89135 151.618 9.41757 151.672 9.95727C151.726 10.488 151.753 11.0682 151.753 11.6978V21.0482H148.906V17.4862L149.378 17.9989C148.721 19.0513 147.952 19.8249 147.071 20.3196C146.198 20.8054 145.105 21.0482 143.792 21.0482ZM144.44 18.4577C145.177 18.4577 145.807 18.3272 146.329 18.0664C146.85 17.8055 147.264 17.4862 147.57 17.1084C147.885 16.7306 148.096 16.3753 148.204 16.0425C148.375 15.6287 148.469 15.1565 148.487 14.6257C148.514 14.086 148.528 13.6498 148.528 13.3169L149.526 13.6138C148.546 13.7667 147.705 13.9016 147.003 14.0186C146.302 14.1355 145.699 14.2479 145.195 14.3559C144.691 14.4548 144.246 14.5673 143.859 14.6932C143.482 14.8281 143.162 14.9855 142.901 15.1654C142.641 15.3453 142.438 15.5522 142.294 15.7861C142.159 16.02 142.092 16.2943 142.092 16.6092C142.092 16.969 142.182 17.2883 142.362 17.5671C142.542 17.837 142.802 18.0529 143.144 18.2148C143.495 18.3767 143.927 18.4577 144.44 18.4577Z" fill="#6D758F"/>
<path d="M171.686 21.0113V11.7923C171.686 10.7938 171.439 10.0157 170.944 9.45805C170.449 8.89135 169.779 8.60801 168.933 8.60801C168.412 8.60801 167.944 8.72944 167.53 8.97231C167.116 9.20618 166.788 9.55699 166.545 10.0247C166.302 10.4835 166.181 11.0322 166.181 11.6708L164.737 10.8208C164.728 9.81335 164.953 8.92733 165.412 8.16275C165.88 7.38917 166.509 6.7865 167.301 6.35473C168.092 5.92297 168.974 5.70708 169.945 5.70708C171.555 5.70708 172.788 6.19282 173.642 7.16429C174.506 8.12677 174.938 9.39508 174.938 10.9692V21.0113H171.686ZM154.159 21.0113V6.07139H157.033V10.5914H157.438V21.0113H154.159ZM162.943 21.0113V11.8328C162.943 10.8163 162.695 10.0247 162.201 9.45805C161.706 8.89135 161.031 8.60801 160.177 8.60801C159.349 8.60801 158.683 8.89135 158.18 9.45805C157.685 10.0247 157.438 10.7623 157.438 11.6708L155.98 10.6994C155.98 9.75488 156.214 8.90485 156.682 8.14926C157.15 7.39367 157.779 6.79999 158.571 6.36822C159.372 5.92746 160.267 5.70708 161.256 5.70708C162.344 5.70708 163.253 5.94096 163.982 6.4087C164.719 6.86745 165.268 7.49711 165.628 8.29768C165.997 9.08925 166.181 9.98426 166.181 10.9827V21.0113H162.943Z" fill="#6D758F"/>
<defs>
<linearGradient id="paint0_linear_130_481" x1="24.8729" y1="1.41528" x2="4.31764" y2="26.5897" gradientUnits="userSpaceOnUse">
<stop stop-color="#CBB5FF"/>
<stop offset="1" stop-color="#666666"/>
</linearGradient>
<linearGradient id="paint1_linear_130_481" x1="24.8729" y1="1.41528" x2="4.31764" y2="26.5897" gradientUnits="userSpaceOnUse">
<stop stop-color="#CBB5FF"/>
<stop offset="1" stop-color="#666666"/>
</linearGradient>
</defs>
</svg>
