<svg width="1499" height="3018" viewBox="0 0 1499 3018" fill="none" xmlns="http://www.w3.org/2000/svg">
<path d="M0 2860H1499V58H0V2860Z" fill="#4D5361"/>
<g clip-path="url(#clip0_184_899)">
<g filter="url(#filter0_f_184_899)">
<path d="M-598.336 137.404C-596.465 135.797 -594.496 134.167 -592.428 132.516C-18.1733 102.012 166.757 354.795 763.306 423.048C1482.56 505.34 1962.44 -531.67 1359.93 -181.602C757.426 168.466 567.764 192.265 101.464 64.5818C-262.611 -35.1097 -508.466 65.4919 -592.428 132.516C-710.55 138.791 -845.145 157.052 -1003.18 191.37C-1744.26 352.297 -952.521 242.01 -598.336 137.404Z" fill="#626B7E"/>
</g>
<g filter="url(#filter1_f_184_899)">
<path d="M284.126 15.0545C-67.5599 -95.0181 -302.236 21.5059 -375.613 93.5271C-709.523 206.251 -1202.68 388.344 -504.023 214.931C369.296 -1.83655 483.262 375.908 1161.35 464.586C1839.43 553.263 2038.58 -627.463 1470.56 -250.231C902.541 127 723.734 152.645 284.126 15.0545Z" fill="#828CA4"/>
</g>
<g filter="url(#filter2_f_184_899)">
<path d="M138.507 -38.8505C-244.359 -135.474 -499.627 -34.0864 -579.402 28.6851C-942.67 126.607 -1479.17 284.859 -719.014 134.49C231.178 -53.4715 355.635 276.499 1093.7 354.926C1831.76 433.353 1926.51 -600.969 1308.76 -272.458C691.007 56.0536 617.09 81.9284 138.507 -38.8505Z" fill="#B6C0D8"/>
</g>
<g filter="url(#filter3_f_184_899)">
<path d="M189.872 -128.908C-192.953 -239.001 -448.162 -123.354 -527.914 -51.7688C-891.109 59.948 -1427.5 240.484 -667.485 68.8928C282.527 -145.596 407.024 230.602 1144.99 319.88C1882.95 409.159 2040.1 -806.277 1422.51 -431.602C804.913 -56.926 668.404 8.70894 189.872 -128.908Z" fill="white"/>
</g>
</g>
<g clip-path="url(#clip1_184_899)">
<g filter="url(#filter4_f_184_899)">
<path d="M2097.34 2880.6C2095.47 2882.2 2093.5 2883.83 2091.43 2885.48C1517.17 2915.99 1332.24 2663.2 735.694 2594.95C16.4372 2512.66 -463.442 3549.67 139.066 3199.6C741.574 2849.53 931.236 2825.73 1397.54 2953.42C1761.61 3053.11 2007.47 2952.51 2091.43 2885.48C2209.55 2879.21 2344.15 2860.95 2502.18 2826.63C3243.26 2665.7 2451.52 2775.99 2097.34 2880.6Z" fill="#626B7E"/>
</g>
<g filter="url(#filter5_f_184_899)">
<path d="M1214.87 3002.95C1566.56 3113.02 1801.24 2996.49 1874.61 2924.47C2208.52 2811.75 2701.68 2629.66 2003.02 2803.07C1129.7 3019.84 1015.74 2642.09 337.654 2553.41C-340.43 2464.74 -539.577 3645.46 28.4414 3268.23C596.459 2891 775.266 2865.35 1214.87 3002.95Z" fill="#828CA4"/>
</g>
<g filter="url(#filter6_f_184_899)">
<path d="M1360.49 3056.85C1743.36 3153.47 1998.63 3052.09 2078.4 2989.31C2441.67 2891.39 2978.17 2733.14 2218.01 2883.51C1267.82 3071.47 1143.37 2741.5 405.303 2663.07C-332.758 2584.65 -427.507 3618.97 190.243 3290.46C807.993 2961.95 881.91 2936.07 1360.49 3056.85Z" fill="#B6C0D8"/>
</g>
<g filter="url(#filter7_f_184_899)">
<path d="M1309.13 3146.91C1691.95 3257 1947.16 3141.35 2026.91 3069.77C2390.11 2958.05 2926.5 2777.52 2166.49 2949.11C1216.47 3163.6 1091.98 2787.4 354.013 2698.12C-383.95 2608.84 -541.104 3824.28 76.4912 3449.6C694.087 3074.93 830.596 3009.29 1309.13 3146.91Z" fill="white"/>
</g>
</g>
<g clip-path="url(#clip2_184_899)">
<path opacity="0.4" d="M-8 1876C139 1773.67 554.616 1448.8 809 1605C923 1675 1347.5 1234.67 1441.5 1088.5" stroke="white"/>
<circle opacity="0.4" cx="1354" cy="1200" r="31.5" stroke="white"/>
<path opacity="0.4" d="M0 2573C140.881 2757.25 1002.85 3057.37 1440 2825.85" stroke="white"/>
<circle opacity="0.4" cx="290" cy="2749" r="41.5" stroke="white"/>
</g>
<defs>
<filter id="filter0_f_184_899" x="-1423.49" y="-368.032" width="3170.96" height="909.751" filterUnits="userSpaceOnUse" color-interpolation-filters="sRGB">
<feFlood flood-opacity="0" result="BackgroundImageFix"/>
<feBlend mode="normal" in="SourceGraphic" in2="BackgroundImageFix" result="shape"/>
<feGaussianBlur stdDeviation="57" result="effect1_foregroundBlur_184_899"/>
</filter>
<filter id="filter1_f_184_899" x="-972.492" y="-438.827" width="2888.88" height="1022.19" filterUnits="userSpaceOnUse" color-interpolation-filters="sRGB">
<feFlood flood-opacity="0" result="BackgroundImageFix"/>
<feBlend mode="normal" in="SourceGraphic" in2="BackgroundImageFix" result="shape"/>
<feGaussianBlur stdDeviation="57" result="effect1_foregroundBlur_184_899"/>
</filter>
<filter id="filter2_f_184_899" x="-1168.71" y="-401.106" width="2948.99" height="824.293" filterUnits="userSpaceOnUse" color-interpolation-filters="sRGB">
<feFlood flood-opacity="0" result="BackgroundImageFix"/>
<feBlend mode="normal" in="SourceGraphic" in2="BackgroundImageFix" result="shape"/>
<feGaussianBlur stdDeviation="32" result="effect1_foregroundBlur_184_899"/>
</filter>
<filter id="filter3_f_184_899" x="-1087.11" y="-537.53" width="2926.16" height="896.116" filterUnits="userSpaceOnUse" color-interpolation-filters="sRGB">
<feFlood flood-opacity="0" result="BackgroundImageFix"/>
<feBlend mode="normal" in="SourceGraphic" in2="BackgroundImageFix" result="shape"/>
<feGaussianBlur stdDeviation="17" result="effect1_foregroundBlur_184_899"/>
</filter>
<filter id="filter4_f_184_899" x="-248.47" y="2476.28" width="3170.96" height="909.751" filterUnits="userSpaceOnUse" color-interpolation-filters="sRGB">
<feFlood flood-opacity="0" result="BackgroundImageFix"/>
<feBlend mode="normal" in="SourceGraphic" in2="BackgroundImageFix" result="shape"/>
<feGaussianBlur stdDeviation="57" result="effect1_foregroundBlur_184_899"/>
</filter>
<filter id="filter5_f_184_899" x="-417.388" y="2434.64" width="2888.88" height="1022.19" filterUnits="userSpaceOnUse" color-interpolation-filters="sRGB">
<feFlood flood-opacity="0" result="BackgroundImageFix"/>
<feBlend mode="normal" in="SourceGraphic" in2="BackgroundImageFix" result="shape"/>
<feGaussianBlur stdDeviation="57" result="effect1_foregroundBlur_184_899"/>
</filter>
<filter id="filter6_f_184_899" x="-281.28" y="2594.81" width="2948.99" height="824.293" filterUnits="userSpaceOnUse" color-interpolation-filters="sRGB">
<feFlood flood-opacity="0" result="BackgroundImageFix"/>
<feBlend mode="normal" in="SourceGraphic" in2="BackgroundImageFix" result="shape"/>
<feGaussianBlur stdDeviation="32" result="effect1_foregroundBlur_184_899"/>
</filter>
<filter id="filter7_f_184_899" x="-340.052" y="2659.41" width="2926.16" height="896.116" filterUnits="userSpaceOnUse" color-interpolation-filters="sRGB">
<feFlood flood-opacity="0" result="BackgroundImageFix"/>
<feBlend mode="normal" in="SourceGraphic" in2="BackgroundImageFix" result="shape"/>
<feGaussianBlur stdDeviation="17" result="effect1_foregroundBlur_184_899"/>
</filter>
<clipPath id="clip0_184_899">
<rect width="1499" height="579" fill="white"/>
</clipPath>
<clipPath id="clip1_184_899">
<rect width="1499" height="579" fill="white" transform="matrix(-1 0 0 -1 1499 3018)"/>
</clipPath>
<clipPath id="clip2_184_899">
<rect width="1499" height="3018" fill="white"/>
</clipPath>
</defs>
</svg>
