<svg width="235" height="168" viewBox="0 0 235 168" fill="none" xmlns="http://www.w3.org/2000/svg">
<path fill-rule="evenodd" clip-rule="evenodd" d="M193.563 83.8037H150.847V98.0707V151.452C150.847 160.375 158.079 167.607 167.002 167.607H218.723C227.645 167.607 234.878 160.375 234.878 151.452V99.9586C234.878 91.0365 227.645 83.8037 218.723 83.8037H193.563Z" fill="white"/>
<path d="M3.62131 108.648C1.27883 111.528 0 115.128 0 118.841V151.452C0 160.375 7.23281 167.607 16.1549 167.607H52.9715C57.688 167.607 62.1689 165.546 65.2381 161.965L127.387 89.4461C130.456 85.8649 134.937 83.8037 139.654 83.8037H150.847V55.52V16.1549C150.847 7.23279 143.614 0 134.692 0H99.6615C94.7992 0 90.1956 2.18996 87.1279 5.96228L3.62131 108.648Z" fill="white"/>
</svg>
